<mxfile host="app.diagrams.net" agent="Mozilla/5.0 (Windows NT 10.0; Win64; x64) AppleWebKit/537.36 (KHTML, like Gecko) Chrome/132.0.0.0 Safari/537.36 OPR/117.0.0.0" version="26.2.6">
  <diagram id="C5RBs43oDa-KdzZeNtuy" name="Page-1">
    <mxGraphModel dx="833" dy="453" grid="1" gridSize="10" guides="1" tooltips="1" connect="1" arrows="1" fold="1" page="1" pageScale="1" pageWidth="827" pageHeight="1169" math="0" shadow="0">
      <root>
        <mxCell id="WIyWlLk6GJQsqaUBKTNV-0" />
        <mxCell id="WIyWlLk6GJQsqaUBKTNV-1" parent="WIyWlLk6GJQsqaUBKTNV-0" />
        <mxCell id="BiR8TMUmqXo62Cu_uddZ-2" style="edgeStyle=orthogonalEdgeStyle;rounded=0;orthogonalLoop=1;jettySize=auto;html=1;" edge="1" parent="WIyWlLk6GJQsqaUBKTNV-1" source="BiR8TMUmqXo62Cu_uddZ-0" target="BiR8TMUmqXo62Cu_uddZ-1">
          <mxGeometry relative="1" as="geometry" />
        </mxCell>
        <mxCell id="BiR8TMUmqXo62Cu_uddZ-0" value="InÃ­cio" style="rounded=1;whiteSpace=wrap;html=1;fontSize=12;glass=0;strokeWidth=1;shadow=0;" vertex="1" parent="WIyWlLk6GJQsqaUBKTNV-1">
          <mxGeometry x="260" y="170" width="60" height="40" as="geometry" />
        </mxCell>
        <mxCell id="BiR8TMUmqXo62Cu_uddZ-4" value="" style="edgeStyle=orthogonalEdgeStyle;rounded=0;orthogonalLoop=1;jettySize=auto;html=1;" edge="1" parent="WIyWlLk6GJQsqaUBKTNV-1" source="BiR8TMUmqXo62Cu_uddZ-1" target="BiR8TMUmqXo62Cu_uddZ-3">
          <mxGeometry relative="1" as="geometry" />
        </mxCell>
        <mxCell id="BiR8TMUmqXo62Cu_uddZ-1" value="&lt;div&gt;&lt;br&gt;&lt;/div&gt;&lt;div&gt;&lt;br&gt;&lt;/div&gt;Ler raio" style="shape=manualInput;whiteSpace=wrap;html=1;" vertex="1" parent="WIyWlLk6GJQsqaUBKTNV-1">
          <mxGeometry x="245" y="240" width="90" height="60" as="geometry" />
        </mxCell>
        <mxCell id="BiR8TMUmqXo62Cu_uddZ-3" value="A =&amp;nbsp;3,14159 * raio * raio" style="whiteSpace=wrap;html=1;" vertex="1" parent="WIyWlLk6GJQsqaUBKTNV-1">
          <mxGeometry x="210" y="380" width="160" height="60" as="geometry" />
        </mxCell>
        <mxCell id="BiR8TMUmqXo62Cu_uddZ-8" style="edgeStyle=orthogonalEdgeStyle;rounded=0;orthogonalLoop=1;jettySize=auto;html=1;exitX=0;exitY=0;exitDx=40;exitDy=40;exitPerimeter=0;entryX=0.5;entryY=0;entryDx=0;entryDy=0;" edge="1" parent="WIyWlLk6GJQsqaUBKTNV-1" source="BiR8TMUmqXo62Cu_uddZ-5" target="BiR8TMUmqXo62Cu_uddZ-7">
          <mxGeometry relative="1" as="geometry" />
        </mxCell>
        <mxCell id="BiR8TMUmqXo62Cu_uddZ-5" value="A" style="shape=display;whiteSpace=wrap;html=1;" vertex="1" parent="WIyWlLk6GJQsqaUBKTNV-1">
          <mxGeometry x="470" y="390" width="80" height="40" as="geometry" />
        </mxCell>
        <mxCell id="BiR8TMUmqXo62Cu_uddZ-6" style="edgeStyle=orthogonalEdgeStyle;rounded=0;orthogonalLoop=1;jettySize=auto;html=1;exitX=1;exitY=0.5;exitDx=0;exitDy=0;entryX=0;entryY=0.5;entryDx=0;entryDy=0;entryPerimeter=0;" edge="1" parent="WIyWlLk6GJQsqaUBKTNV-1" source="BiR8TMUmqXo62Cu_uddZ-3" target="BiR8TMUmqXo62Cu_uddZ-5">
          <mxGeometry relative="1" as="geometry" />
        </mxCell>
        <mxCell id="BiR8TMUmqXo62Cu_uddZ-7" value="Fim" style="rounded=1;whiteSpace=wrap;html=1;fontSize=12;glass=0;strokeWidth=1;shadow=0;" vertex="1" parent="WIyWlLk6GJQsqaUBKTNV-1">
          <mxGeometry x="480" y="490" width="60" height="40" as="geometry" />
        </mxCell>
      </root>
    </mxGraphModel>
  </diagram>
</mxfile>
